<svg viewBox="0 0 32 32" xml:space="preserve" xmlns="http://www.w3.org/2000/svg"><path d="M29.895 12.52a1.943 1.943 0 0 0-1.549-1.319l-7.309-1.095-3.29-6.984C17.42 2.43 16.751 2 16 2s-1.42.43-1.747 1.122l-3.242 6.959-7.357 1.12c-.72.11-1.313.615-1.549 1.319a2.004 2.004 0 0 0 .465 2.046l5.321 5.446-1.257 7.676a1.984 1.984 0 0 0 .811 1.959 1.89 1.89 0 0 0 2.02.114l6.489-3.624 6.581 3.624a1.893 1.893 0 0 0 2.02-.114 1.982 1.982 0 0 0 .811-1.959l-1.259-7.686 5.323-5.436a2.004 2.004 0 0 0 .465-2.046z" fill="#fcca00" class="fill-000000"></path></svg>
